<svg xmlns="http://www.w3.org/2000/svg" width="288.9" height="114" style="overflow:visible;enable-background:new 0 0 288.9 114" xml:space="preserve"><style>.st0{fill:#8331a7}.st1{fill:#fff}</style><path class="st0" d="m288.6 57.3.3-10.7c-40.3 4.1-80.7 5.9-121-2.3C162.1 19 139.4 0 112.3 0c-20.2 0-38 10.5-48.1 26.4-19.8-5.2-40.4-7-60.2-7-.2 1.6-.4 3.2-.7 4.8-.3 2.3-.7 5-1.1 7.7 18.7.1 37.5 1.9 56.2 6.5-.3.8-.5 1.7-.8 2.5-18.6-4.5-37.2-6.3-55.8-6.4C1.2 38.4.6 42.2 0 44.9c18.6-.3 37.1 1.1 55.7 5.2-.3 2.3-.4 4.6-.4 6.9 0 31.5 25.5 57 57 57 27.1 0 49.7-18.9 55.6-44.2 40.1 8.1 80.2 6.3 120.4 2.3l.3-11.8c-39.7 3.4-79.5 4.6-119.2-3.7 0-1 0-2.1-.1-3.1 39.7 8.4 79.5 7.2 119.3 3.8z"/><circle class="st1" cx="112.3" cy="57" r="38.1"/><path class="st1" d="M74.7 30.5s1.6-.3 2.4-1.3c.3-.4.5-1 0-1.4-1-.8-3.9 3-6.5 1-1.5-1.2-1.5-3.3-.2-5 1.4-1.8 3.1-1.9 3.1-1.9l1 2.2s-1.4.3-2.2 1.3c-.3.4-.5 1 0 1.4 1.1.8 3.8-3.1 6.5-1 1.4 1.1 1.8 3.1.3 5-1.5 2-3.6 2.1-3.6 2.1l-.8-2.4zM74.8 19.2l1.9-1.8 7.3 7.7-1.9 1.8-7.3-7.7zM84 18.3l-5.7-2.6 2.4-1.7 2.2 1.1c.7.3 1.3.8 1.3.8s-.2-.7-.2-1.5l-.3-2.5 2.4-1.7.3 6.2 5.7 2.5-2.4 1.6-2.3-1.1c-.7-.3-1.3-.7-1.3-.7s.1.7.2 1.5l.3 2.5-2.4 1.6-.2-6zM92.7 7.3l2.5-.7 4.2 3.9c.6.6 1.4 1.5 1.4 1.5s-.4-1.1-.6-1.7l-1.4-4.8 2.5-.7 3 10.2-2.5.7-4.2-3.9c-.6-.6-1.4-1.5-1.4-1.5s.4 1.1.6 1.7l1.4 4.7-2.5.7-3-10.1zM111.6 12.2l-3.3.2-.5 2.3-2.7.1L108.2 4l2.7-.1 4.1 10.4-2.6.1-.8-2.2zm-1.9-5.9-.3 1.8-.5 2.1 2.1-.1-.7-2c-.3-.6-.6-1.8-.6-1.8zM117.6 6.3l-3.2-.4.3-2.2 9 1.2-.3 2.2-3.2-.4-1.1 8.3-2.6-.3 1.1-8.4zM125.4 5.5l2.5.7-3 10.2-2.5-.7 3-10.2zM135.5 9.1c2.9 1.4 3.9 4.6 2.6 7.3-1.4 2.8-4.6 3.9-7.4 2.5-2.9-1.4-3.9-4.6-2.5-7.4 1.2-2.7 4.4-3.8 7.3-2.4zm-3.8 7.7c1.4.7 3.2 0 4-1.6s.2-3.3-1.2-4-3.1-.1-3.9 1.5c-.9 1.6-.4 3.4 1.1 4.1zM142.8 13.5l2 1.7-1 5.7c-.1.8-.5 2-.5 2s.7-.9 1.1-1.5l3.2-3.8 2 1.7-6.9 8.1-2-1.7 1-5.7c.1-.8.5-2 .5-2s-.7.9-1.1 1.5l-3.2 3.8-2-1.7 6.9-8.1zM147 27.3s-.2 1.6.6 2.7c.3.4.8.8 1.3.4 1-.8-1.9-4.6.7-6.5 1.6-1.2 3.6-.6 4.9 1.1 1.4 1.8 1.1 3.5 1.1 3.5l-2.4.4s.1-1.4-.7-2.4c-.3-.4-.9-.8-1.3-.4-1.1.8 2 4.5-.7 6.5-1.4 1.1-3.4.9-4.9-1-1.5-2-1.1-4-1.1-4l2.5-.3zM140.8 95.7l-1.2-1.3c-1.3.9-2.5 1.7-3.8 2.4-.1-.7-.3-1.4-.4-2.1-1.9 1.1-3.9 2-5.9 2.7.1.9.2 1.8.4 2.7-1.3.5-2.6.9-3.9 1.3-.1-1.2-.3-2.4-.4-3.6-2.2.6-4.5 1.1-6.7 1.4.1 1.6.2 3.2.3 4.9-.7.1-1.4.2-2.1.2-1.3-2-2.5-4.1-3.7-6.2-1.1 2.1-2.3 4.2-3.5 6.2-.8-.1-1.6-.1-2.4-.2 0-1.6.1-3.3.2-4.9-2.3-.3-4.5-.7-6.7-1.4l-.3 3.6c-1.3-.4-2.6-.8-3.9-1.3l.3-2.7c-2-.8-4-1.7-5.9-2.8l-.3 2.1c-.3-.2-.7-.4-1-.6-.2.5-.5 1.1-.8 1.6l1.5.9c-.1.9-.3 1.7-.4 2.6 2 1.1 4.1 2.1 6.2 2.9.1-.7.2-1.4.2-2.1 1.3.5 2.6.9 4 1.3-.1.8-.1 1.6-.2 2.4 2.3.7 4.7 1.1 7.1 1.4v-1.2c.8.1 1.7.2 2.5.2.5.9 1 1.7 1.4 2.6h1v2.8h2.4c0-.9 0-1.9-.1-2.8h1c.5-.9.9-1.7 1.4-2.6.7-.1 1.5-.1 2.2-.2 0 .4 0 .8.1 1.2 2.4-.3 4.8-.8 7.1-1.5l-.3-2.4c1.3-.4 2.7-.8 4-1.3l.3 2.1c2.1-.8 4.2-1.8 6.2-2.9-.2-.9-.3-1.7-.5-2.6 1.5-.7 3.1-1.7 4.6-2.8zm-45.9 6.5c-1.1-.5-2.2-1-3.2-1.5.2-1.2.4-2.4.6-3.7 1 .5 2.1 1 3.1 1.5-.2 1.2-.4 2.4-.5 3.7zm10.9 3.2c-1.3-.2-2.7-.5-4-.8.1-1.6.2-3.2.3-4.7 1.3.3 2.6.6 3.9.8 0 1.6-.1 3.1-.2 4.7zm14.9 0-.3-4.8c1.3-.2 2.6-.5 3.9-.8.2 1.6.3 3.1.5 4.7-1.4.4-2.7.7-4.1.9zm11-3.3c-.2-1.2-.4-2.4-.6-3.7 1.1-.4 2.1-.9 3.1-1.5l.6 3.6c-1 .6-2 1.1-3.1 1.6zM70.1 58.6c.1 2.7-1.3 4.1-1.3 4.1l-2-1.2s.9-1.1.9-2.6c-.1-2.2-1.5-3.1-3.1-3-2 .1-3.2 1.5-3.1 3.2 0 1.2.8 2.1.8 2.1h.8l-.1-1.5 2.2-.1.1 3.8-6 .2.1-2.2h.7s-1-1-1-2.8c-.1-2.7 1.8-5.3 5.3-5.4 3.1-.1 5.6 2.1 5.7 5.4zM70.4 64.2l1 3.6c.3 1 .4 1.6.3 2.1-.1 1.3-1 2.3-2.5 2.7-1.1.3-2.4.1-3.2-.8 0 0-.1.2-.5.6l-3 3-.8-2.8 2.9-2.8-.3-1.2-3.5 1-.7-2.5 10.3-2.9zm-3.6 4.9c.2.8.8 1.2 1.6 1 .8-.2 1.2-.6.8-1.9l-.2-.8-2.5.7.3 1zM67.8 81.2l-1.5-2.9-2.3.5-1.2-2.4 11.1-1.6 1.2 2.4-7.8 8.1-1.2-2.4 1.7-1.7zm4.6-4.3s-1.1.3-1.8.5l-2.2.4 1 1.9 1.6-1.5c.5-.5 1.4-1.2 1.4-1.3zM76.7 80l1.7 2-2 5.4c-.3.8-.8 1.8-.8 1.8s.8-.8 1.3-1.2l3.8-3.2 1.7 2-8.2 6.8-1.7-2 1.9-5.4c.3-.8.8-1.8.8-1.8s-.8.8-1.3 1.2l-3.8 3.1-1.7-2 8.3-6.7zM83.1 87.5l3 2.3c2.7 2 3.2 4.9 1.1 7.5-2 2.7-4.9 2.9-7.6.9l-3-2.3 6.5-8.4zm-2.2 8.9c1.4 1.1 2.9.9 4.2-.7 1.2-1.6 1-3.1-.4-4.2l-.8-.6-3.7 4.9.7.6zM137.9 90.1l2.7-2.5c.8-.7 1.2-1 1.7-1.2 1.2-.5 2.5-.2 3.5.9.8.8 1.2 2.1.8 3.2 0 0 .2 0 .7.2l4 1.3-2.1 2-3.8-1.3-.9.8 2.4 2.6-1.9 1.8-7.1-7.8zm6 1c.6-.6.7-1.3.1-1.9-.5-.6-1.1-.7-2 .2l-.6.6 1.8 1.9.7-.8zM144.7 83.3l1.6-2.1 8.4 6.5-1.6 2.1-8.4-6.5zM146.9 80.8l1.3-2.5 6.2 1.2c.7.1 1.7.4 1.7.4s-.8-.7-1.3-1.2l-4.5-4.5 1.3-2.5 7.6 8.3-1.3 2.4-11-1.6zM151.7 71.3l1.8-6.4 2.1.6-1.1 3.9 1.9.5.9-3.1 2.1.6-.9 3.1 1.9.6 1.2-4.1 2.1.6-1.9 6.6-10.1-2.9zM153.8 63.5l.3-3.7c.1-1.1.2-1.6.4-2 .5-1.2 1.7-1.8 3.2-1.7 1.1.1 2.3.7 2.8 1.8 0 0 .2-.1.7-.4l3.9-1.8-.2 2.9-3.7 1.6-.1 1.2 3.6.3-.2 2.6-10.7-.8zm5-3.4c.1-.8-.4-1.4-1.2-1.4-.8-.1-1.3.2-1.4 1.5l-.1.9 2.6.2.1-1.2z"/><path d="M129.3 84.6c-1.2-.4-2.4-.4-3.6-.8-1.2-.3-1.4.2-2.1.3-.7.1-1.8-.2-3.2-.1-1.2 0-1.6.4-3.3-.2-.9-.3-1.8-.9-1.9-1.3-.1-.5-.1-.9-.1-1.3 0-1.6-.1-4.9-.3-7.6 0-.8.6-.9 1-1.3.4-.3.3-1.5.8-1.6.5 0 .9 1.6 2 2.3.2.2.8 1.1 1 1.2.3.2 1.5.6 2 .1.7-.7-.8-2.8-1.2-3.9-.4-1.1-1.2-2.1-.8-3.3.2-.6 1-.3 1-.1.4.9-.1 1.7 1.1 1.6 1.1-.1.5-.7 1.6.2.3.2.8.7 1.1.7.2 0 1.2.4 1.8.1.9-.5-1.8-4.7.4-3.1.8.6.7 1 1.8 1 .2 0 1.4.5 1.9.1.7-.5-1.1-2.5-1.8-3.9-.3-.5-.1-1.2-.5-1.7-.2-.4-.9-.8-1.3-1.1-1.2-.9-2.4-2.2-4-2.6-.2 0-.8 0-1-.1-.5-.5 0-1 .3-1.2.4-.3 1.3-.4 1.7-.3.7.2 2.6 2.2 3.3 1.6.6-.5-1.1-2.2-1.5-2.5l-2.1-1.5c-.5-.4-1.2-.4-1.7-.7-.8-.5-.3-1.1-.9-1.7-.6-.7-1.6-.5-2-1.6 1-.5 1.2.2 2 .1.8-.2 1 .3 1.2.4.7.5.9.2 1.5.4.3.1 1.8 1 2.1.4.7-1-2-2.8-2.6-3.3-1.1-1-2.1-2.1-2.7-3.5.5-.4 1.6.7 2.4.3.5-.4 1.1.1.9-1.2 0-.3-.4-1.4-.6-1.6-.3-.4-1.8-1.7-2.3-2-1-.4-1.6-.7-2.5-1.5-.4-.4-.5-.7-.9-1-.5-.4-1-1-1.3-1.6.7-.6 1.8.2 2.5-.3.3-.2.3-.9.6-1 .3-.2 1.3.3 1.5 0 .7-1-2.5-2.6-3.1-3.1-2.1-1.9-3.7-4.4-4.4-7.2-.2-.8-.6-4.4-1.5-2.6-.6 1.3-.3 3-.8 4.4-.3 1-.6 1.9-1.4 2.5-.3.2-.7.5-1 .7-.3.3-2.9 2.3-3.8 2.9-.8.6-2.7.7-1.9 1.9.4.6 1.4.9 1.9 1 .3.1 1.4.3 1.7.2.7-.2 1.1-1.4 1.7-1.1.1.1.7 1 .7 1.4-.4-.1-4.6 2.2-6.1 3.2-.7.5-2.6 2.2-1.9 3.3.1.2 1 .7 1.2.6.3 0 .6-.6.8-.6.4 0 .4.7.8.8.3.1.7-.2 1-.3.4-.1 2.2-.8 2.3-.3.2.6-1.3 1.3-1.6 1.5-.8.4-5.8 2.4-6.5 3.1-.6.6-2.4 2.4-1.1 3.3.6.3 1.4-.5 1.9-.6 1-.1 1.4.2 1.4.8s-2.3 1.4-2.9 1.9c-.7.7-1.7 1.8-2.1 2.8-.3.8-.4 1.3.2 1.6s1.2 0 1.7.8c-.4.7-1.3.6-1.8 1.2-.4.6-.1 1.2-.4 1.8-.4.9-1.2 1.7-1.7 2.6-.2.4-.7 1.6-.2 2.1.2.2 1.3-.1 1.7-.2.3-.1.5 0 .9-.2.3-.2.5-.9.8-1.1.7-.4.5.7 1.3.7s2.1-1.6 2.3-2.3c.1-.4 1.7-1.9 2.4-1.6.9.4-.1 2.2-.9 3.1-.2.2-.9.7-1.2.8-.8.3-1.1.3-1.7.9-.2.2-1.3 1.4-1.3 1.6-.2.3-.4.9-.6 1.1-.1.1-1 .8-1.2 1.5-.1.4-1.8 1.4-1.8 1.9.1.5 1.6.6 2.3.4.5-.2 1.1-1.3 2.1-1.2.3 0 .5.7.9 1.1s2.4 1 3.4-.3c.3-.3.1-1.3.4-1.5.5-.3 1 .2 1.1.5.2.5-.4 1.4-.5 1.9-.1.7-.7 2-.6 2.5s1.6.5 2.2-.6c.1-.2.1-.5.3-.7.3-.4.8-.7 1.4-1.2.2-.2.8-1.3 1.4-1.3.5 0 1.6 1.6 1.6 2.4 0 1.9-.2 3.9-.1 5.1 0 .5-.1 2.9-.2 3.4s-1 1.1-1.8 1.5c-1.6.8-1.9 0-3 0-1.4.1-2.9.5-3.7.5-.7 0-2.2.2-2.9.3-1.2.2-2 .5-3.1 1-1 .5-1.4 1-2 1.8.8 0 1.3-.3 1.8-.8 1.1-1.1 2-1 3.5-1.1.4 0 1.5-.1 1.9 0 .3.1.5.1.8.1.5 0 .9-.2 1.4-.4.9-.2 1.9.1 2.9.3 1.3.2 2.7 0 3.9-.5 0 .1-.1.3-.4.5-1.1 1-2.4 1.1-3.3 1.3-1.1.3-1.5.2-2.6.7-.7.3-1.4.2-1.9.4-.9.4-1 .9-1.8 1.2-.9.3-1.2 1-1 1.3.6-.6 1.2-.5 2.4-.8.3-.1 1-.5 1.2-.7.3-.2 1.2-.7 1.9-.8.4-.1 1.3.2 1.7 0 .7-.4 1.5-.6 2.3-.5 1.2 0 3 0 4-1.9 2 .3 2.1 1.3 3.3 1.9.7.4 2.7.6 3.4 1 1.4.8 1.9.6 2.9.7 1.2 0 2 .5 2.3.6 1.2.4 1.4.4 1.9 1.1.2-.3.3-1.3-.6-1.6-.9-.3-.5-.6-1.4-.9-1.2-.4-2.9-.4-3.6-.8-1.1-.6-.9-.8-2-1.1-.9-.2-1.5-.3-1.9-.7-.2-.2-.5-.4-.7-.5.9.2 1.7.3 2.3.2 1-.1 2.4-.6 3.4-.4.5.1 2-.1 2.7-.3 1.1-.4 1.5.4 2.5.2.6-.1 1.2-.1 1.9 0 .7.2 1.8 1.4 2.6 1.3-.3-.7-1-1.3-2-1.7z" style="fill-rule:evenodd;clip-rule:evenodd;fill:#8331a7"/><path class="st0" d="M85.6 42.1c1.9 0 3.3 1.4 3.3 3.2s-1.4 3.3-3.3 3.3-3.3-1.4-3.3-3.3c0-1.7 1.4-3.2 3.3-3.2zm0 5.1c.9 0 1.7-.8 1.7-1.9 0-1-.8-1.8-1.7-1.8-.9 0-1.7.8-1.7 1.8 0 1.1.7 1.9 1.7 1.9zM89.9 42.3h3.8v1.3h-2.3v1.3h2v1.3h-2v2.3h-1.5v-6.2zM129.2 43.6h-1.9v-1.3h5.3v1.3h-1.9v5h-1.5v-5zM133.4 42.3h1.5v2.5h2.3v-2.5h1.5v6.3h-1.5v-2.5h-2.3v2.5h-1.5v-6.3zM140.2 42.3h3.9v1.3h-2.4v1.1h1.9V46h-1.9v1.2h2.5v1.3h-4.1v-6.2h.1z"/></svg>