<svg xmlns="http://www.w3.org/2000/svg" width="267.806" height="110.333"><defs><style>.cls-1{fill:#fff}</style></defs><g transform="translate(-93.768 -427.37)"><path class="cls-1" d="M153.268 455.5c-18.322-4.809-37.3-6.473-55.608-6.439-.179 1.5-.4 2.987-.635 4.472a692.09 692.09 0 0 1-1.047 7.177 213.831 213.831 0 0 1 51.417 5.94l2.723-6.268z" transform="translate(-.162 -1.417)"/><path class="cls-1" d="M147 470.065a220.607 220.607 0 0 0-51.551-5.865c-.559 3.572-1.151 7.076-1.681 9.634a223.053 223.053 0 0 1 51.464 4.742z" transform="translate(0 -2.524)"/><path class="cls-1" d="M263.3 482.6c36.9 7.778 73.4 6.6 110.307 3.421l.267-9.888c-37.427 3.765-74.458 5.5-111.886-2.062z" transform="translate(-12.295 -3.245)"/><path class="cls-1" d="M262.219 498.646c37.227 7.512 73.8 5.8 111.026 2.077l.3-10.918c-36.863 3.157-73.072 4.355-109.936-3.4z" transform="translate(-12.313 -4.147)"/><g transform="translate(145.004 429.67)" style="stroke:#fff;stroke-miterlimit:10;stroke-width:2.3px;fill:none"><circle cx="52.867" cy="52.867" r="52.867" style="stroke:none"/><circle cx="52.867" cy="52.867" r="54.017" style="fill:none"/></g><path class="cls-1" d="M168.116 459.553a4.081 4.081 0 0 0 2.255-1.223c.306-.389.486-.931.019-1.3-.92-.723-3.624 2.79-6.006.92-1.43-1.123-1.428-3.063-.222-4.6a4.468 4.468 0 0 1 2.832-1.8l.919 2.017a3.75 3.75 0 0 0-2.024 1.175c-.307.39-.473.959-.04 1.3.974.765 3.538-2.859 5.985-.938 1.288 1.012 1.63 2.872.262 4.616a5.08 5.08 0 0 1-3.323 1.959z" transform="translate(-5.081 -1.599)"/><path class="cls-1" d="m168.606 448.7 1.749-1.656 6.766 7.148-1.75 1.656z" transform="translate(-5.47 -1.27)"/><path class="cls-1" d="m177.341 447.422-5.278-2.391 2.26-1.549 2.03 1.062a18.1 18.1 0 0 1 1.215.7l.023-.016s-.143-.67-.217-1.387l-.247-2.284 2.259-1.549.315 5.792 5.239 2.334-2.214 1.517-2.1-1.065a15.618 15.618 0 0 1-1.192-.667l-.023.015s.127.648.193 1.353l.237 2.341-2.2 1.51z" transform="translate(-5.723 -.756)"/><path class="cls-1" d="m186.527 436.75 2.336-.691 3.917 3.634a17.7 17.7 0 0 1 1.269 1.376l.026-.008s-.406-.984-.581-1.579l-1.305-4.408 2.309-.683 2.793 9.436-2.322.688-3.927-3.618a17.489 17.489 0 0 1-1.268-1.376l-.027.007s.406.985.582 1.579l1.3 4.4-2.309.683z" transform="translate(-6.78 -.345)"/><path class="cls-1" d="m204.908 441.244-3.067.142-.495 2.09-2.475.116 2.884-9.987 2.53-.118 3.8 9.676-2.476.115zm-1.8-5.457s-.17 1.083-.321 1.71l-.475 1.937 1.939-.09-.639-1.886c-.208-.61-.477-1.672-.477-1.672z" transform="translate(-7.682 -.279)"/><path class="cls-1" d="m211.107 435.8-2.961-.4.275-2.047 8.311 1.117-.275 2.047-2.961-.4-1.035 7.71-2.388-.321z" transform="translate(-8.36 -.27)"/><path class="cls-1" d="m218.931 435.166 2.316.664-2.711 9.463-2.315-.663z" transform="translate(-8.95 -.402)"/><path class="cls-1" d="M228.674 438.711a4.981 4.981 0 0 1 2.394 6.786 5.15 5.15 0 0 1-9.236-4.558 4.979 4.979 0 0 1 6.842-2.228zm-3.528 7.149a2.778 2.778 0 0 0 3.687-1.466 2.662 2.662 0 1 0-4.766-2.352 2.777 2.777 0 0 0 1.079 3.818z" transform="translate(-9.319 -.619)"/><path class="cls-1" d="m236.112 443.14 1.858 1.579-.9 5.271a17.535 17.535 0 0 1-.459 1.815l.021.019s.6-.88 1-1.352l2.979-3.506 1.837 1.561-6.378 7.5-1.846-1.57.882-5.269a17.582 17.582 0 0 1 .459-1.816l-.021-.018s-.6.88-1 1.351l-2.969 3.5-1.837-1.561z" transform="translate(-9.938 -.985)"/><path class="cls-1" d="M240.573 456.71a4.073 4.073 0 0 0 .6 2.494c.3.4.774.71 1.247.355.936-.7-1.76-4.224.663-6.043 1.453-1.092 3.329-.589 4.5.974a4.466 4.466 0 0 1 1.01 3.2l-2.187.367a3.752 3.752 0 0 0-.614-2.26c-.3-.4-.8-.7-1.245-.375-.991.744 1.848 4.158-.641 6.027-1.311.983-3.2.834-4.528-.939a5.081 5.081 0 0 1-1.035-3.717z" transform="translate(-10.565 -1.7)"/><path class="cls-1" d="m230.77 525.266-1.093-1.175a42.62 42.62 0 0 1-3.555 2.226q-.179-.959-.361-1.921a42.251 42.251 0 0 1-5.444 2.546l.341 2.461q-1.8.691-3.641 1.217l-.36-3.345a42.069 42.069 0 0 1-6.228 1.273l.248 4.5q-.964.122-1.932.2-1.8-2.807-3.443-5.758-1.563 2.959-3.275 5.792-1.094-.079-2.184-.214.068-2.262.14-4.524a41.591 41.591 0 0 1-6.224-1.266l-.282 3.375q-1.841-.521-3.64-1.211l.284-2.491a41.639 41.639 0 0 1-5.434-2.555l-.318 1.953c-.31-.173-.612-.363-.918-.545a7.2 7.2 0 0 1-.748 1.456c.459.28.918.56 1.384.821l-.392 2.425a43.763 43.763 0 0 0 5.719 2.675l.222-1.972q1.824.7 3.693 1.227l-.182 2.214a44.07 44.07 0 0 0 6.608 1.329l.032-1.113q1.148.142 2.3.222.658 1.217 1.343 2.413.445.017.892.025.008 1.3.018 2.594 1.115.021 2.232-.014l-.061-2.593c.314-.009.628-.022.942-.038q.651-1.2 1.277-2.425 1.025-.083 2.046-.214l.063 1.118a44.62 44.62 0 0 0 6.606-1.364l-.24-2.206q1.867-.535 3.693-1.237l.274 1.961a44.559 44.559 0 0 0 5.722-2.689l-.453-2.4a43.88 43.88 0 0 0 4.329-2.753zm-42.551 5.986q-1.51-.637-2.98-1.394.254-1.693.511-3.387 1.428.737 2.9 1.359-.219 1.71-.431 3.422zm10.151 3.036q-1.871-.293-3.719-.75l.316-4.4q1.78.444 3.588.729-.093 2.209-.184 4.422zm13.818-.027q-.149-2.2-.295-4.4 1.807-.291 3.59-.736.21 2.187.424 4.373-1.844.461-3.718.764zm10.149-3.07q-.256-1.693-.51-3.389 1.47-.621 2.9-1.357l.591 3.347q-1.468.759-2.98 1.4z" transform="translate(-6.501 -6.901)"/><path class="cls-1" d="M163.1 487.826a5.436 5.436 0 0 1-1.173 3.83l-1.844-1.092a3.916 3.916 0 0 0 .824-2.427 2.627 2.627 0 0 0-2.883-2.8 2.8 2.8 0 0 0-2.886 2.927 3.372 3.372 0 0 0 .786 1.97l.757-.027-.049-1.39 2.05-.072.124 3.523-5.559.2-.071-2.01.275-.009c.206-.007.413 0 .413 0v-.028a4.077 4.077 0 0 1-.945-2.556 4.823 4.823 0 0 1 4.935-5.011 4.984 4.984 0 0 1 5.246 4.972z" transform="translate(-4.323 -3.886)"/><path class="cls-1" d="m163.435 493.874.915 3.3a5.088 5.088 0 0 1 .285 1.908 2.863 2.863 0 0 1-2.276 2.517 3 3 0 0 1-2.981-.7l-.027.007a5.671 5.671 0 0 1-.472.516l-2.808 2.764-.717-2.588 2.732-2.572-.3-1.088-3.2.886-.643-2.323zm-3.378 4.522a1.127 1.127 0 0 0 1.5.884c.716-.2 1.068-.581.744-1.75l-.217-.782-2.31.64z" transform="translate(-4.398 -4.693)"/><path class="cls-1" d="m161.227 510.337-1.4-2.733-2.109.418-1.133-2.206 10.29-1.522 1.158 2.254-7.231 7.477-1.133-2.205zm4.22-3.9s-1.056.295-1.69.419l-1.96.373.887 1.728 1.452-1.365c.469-.442 1.325-1.129 1.325-1.129z" transform="translate(-4.591 -5.455)"/><path class="cls-1" d="m169.852 509.644 1.552 1.88-1.811 5.03a17.626 17.626 0 0 1-.769 1.706l.018.021s.747-.759 1.225-1.154l3.546-2.928 1.534 1.858-7.592 6.268-1.543-1.869 1.792-5.032a17.7 17.7 0 0 1 .769-1.707l-.017-.021s-.748.76-1.225 1.155l-3.536 2.919-1.534-1.858z" transform="translate(-5.006 -5.846)"/><path class="cls-1" d="m176.363 517.181 2.777 2.124c2.461 1.883 2.939 4.52 1.057 6.98s-4.577 2.72-7.037.838L170.383 525zm-2.025 8.244c1.323 1.012 2.734.844 3.88-.654a2.521 2.521 0 0 0-.409-3.885l-.787-.6-3.471 4.537z" transform="translate(-5.6 -6.396)"/><path class="cls-1" d="m231.656 519.5 2.511-2.333a5.129 5.129 0 0 1 1.561-1.131 2.862 2.862 0 0 1 3.279.861 3 3 0 0 1 .748 2.969l.019.02a5.54 5.54 0 0 1 .675.181l3.744 1.219-1.966 1.827-3.539-1.241-.827.768 2.258 2.43-1.765 1.64zm5.566.916a1.126 1.126 0 0 0 .094-1.74c-.506-.544-1.008-.679-1.895.145l-.6.552 1.629 1.755z" transform="translate(-10.079 -6.298)"/><path class="cls-1" d="m238.478 512.782 1.465-1.912 7.811 5.989-1.465 1.911z" transform="translate(-10.577 -5.935)"/><path class="cls-1" d="m240.708 509.788 1.222-2.313 5.765 1.082c.638.119 1.573.41 1.573.41l.013-.024s-.768-.608-1.226-1.068l-4.133-4.174 1.2-2.277 7.085 7.663-1.17 2.216z" transform="translate(-10.74 -5.245)"/><path class="cls-1" d="m245.452 500.465 1.7-5.929 1.984.569-1.034 3.613 1.72.493.827-2.885 1.985.569-.827 2.885 1.787.511 1.087-3.8 1.986.568-1.752 6.115z" transform="translate(-11.087 -4.741)"/><path class="cls-1" d="m247.554 492.611.245-3.419a5.1 5.1 0 0 1 .37-1.893 2.863 2.863 0 0 1 2.987-1.608 3 3 0 0 1 2.573 1.662h.027a5.457 5.457 0 0 1 .617-.328l3.57-1.664-.192 2.678-3.434 1.507-.081 1.126 3.309.236-.172 2.4zm4.7-3.129a1.126 1.126 0 0 0-1.119-1.336c-.742-.053-1.2.19-1.287 1.4l-.057.81 2.39.171z" transform="translate(-11.241 -4.071)"/><g transform="translate(162.519 447.186)"><path class="cls-1" d="M179.243 473.213a1.6 1.6 0 0 0-1.57 1.667 1.579 1.579 0 1 0 3.14 0 1.6 1.6 0 0 0-1.57-1.667z" transform="translate(-168.652 -450.368)"/><path class="cls-1" d="M203.292 448.567a35.351 35.351 0 1 0 35.351 35.351 35.351 35.351 0 0 0-35.351-35.351zm-24.76 27.555a2.977 2.977 0 0 1-3.042-3.043 3.043 3.043 0 0 1 6.085 0 2.978 2.978 0 0 1-3.043 3.043zm7.575-4.694h-2.14v1.22h1.774v1.22h-1.774v2.157h-1.424v-5.817h3.564zm32.724 38.522a4.121 4.121 0 0 0-1.755-.011c-.989.2-1.347-.527-2.35-.194a7.9 7.9 0 0 1-2.466.275 12.9 12.9 0 0 0-3.108.412 5.865 5.865 0 0 1-2.095-.169 3.475 3.475 0 0 1 .653.489c.411.4.974.416 1.794.638.975.263.848.49 1.822 1.006.644.341 2.148.3 3.3.7.862.294.492.55 1.283.831a1.07 1.07 0 0 1 .534 1.477c-.422-.646-.633-.625-1.721-.985a5.6 5.6 0 0 0-2.14-.526 3.759 3.759 0 0 1-2.643-.6c-.634-.38-2.53-.582-3.175-.925-1.128-.6-1.212-1.478-3.1-1.768a3.634 3.634 0 0 1-3.729 1.738 4.3 4.3 0 0 0-2.142.493c-.309.167-1.2-.094-1.535-.019a5.591 5.591 0 0 0-1.8.778 5.138 5.138 0 0 1-1.137.682c-1.095.341-1.611.227-2.2.777-.151-.265.173-.91.967-1.175s.836-.769 1.687-1.1a11.821 11.821 0 0 0 1.744-.4 9.542 9.542 0 0 1 2.37-.644 6.181 6.181 0 0 0 3.051-1.233 1.216 1.216 0 0 0 .372-.462 6.316 6.316 0 0 1-3.627.489 6.625 6.625 0 0 0-2.677-.278 5.115 5.115 0 0 1-1.257.336 4.183 4.183 0 0 1-.75-.137 8.968 8.968 0 0 0-1.728.014c-1.439.134-2.208.047-3.265 1.034a2.278 2.278 0 0 1-1.713.776 4.264 4.264 0 0 1 1.82-1.7 8.769 8.769 0 0 1 2.9-.949 22.436 22.436 0 0 1 2.65-.291c.667.018 2.118-.414 3.394-.485 1.073-.059 1.325.678 2.812-.032.764-.365 1.583-.914 1.66-1.366s.189-2.631.174-3.107c-.038-1.163.1-3.015.112-4.766 0-.687-1.009-2.245-1.5-2.205-.542.044-1.1 1.059-1.283 1.239-.551.532-1.06.743-1.312 1.149-.122.2-.137.458-.239.659-.526 1.035-1.988.987-2.054.546a12.841 12.841 0 0 1 .554-2.337c.09-.427.628-1.307.486-1.741-.091-.279-.526-.754-.975-.43-.241.173-.119 1.038-.372 1.357a2.46 2.46 0 0 1-3.172.3c-.385-.375-.581-.989-.851-1.014-.949-.087-1.527.919-1.985 1.08-.654.229-2.1.12-2.16-.371s1.538-1.419 1.647-1.778a3.987 3.987 0 0 1 1.145-1.418 9.807 9.807 0 0 0 .582-1.066c.083-.138 1.1-1.295 1.247-1.454a3.173 3.173 0 0 1 1.53-.8 4.292 4.292 0 0 0 1.135-.754c.727-.888 1.627-2.568.818-2.911-.662-.281-2.137 1.044-2.264 1.444-.221.7-1.5 2.166-2.175 2.149s-.521-1.024-1.173-.691c-.315.162-.423.794-.733.983-.295.177-.493.082-.8.161s-1.323.378-1.538.186c-.474-.422-.042-1.518.185-1.915a21.655 21.655 0 0 0 1.566-2.374c.218-.536-.044-1.147.353-1.668.451-.592 1.242-.443 1.633-1.111-.482-.793-1.007-.447-1.575-.763s-.534-.769-.231-1.482a9.3 9.3 0 0 1 1.953-2.635c.5-.492 2.608-1.2 2.643-1.794s-.345-.883-1.272-.785c-.447.047-1.235.828-1.759.555-1.175-.876.477-2.506 1.063-3.093.615-.619 5.218-2.449 5.989-2.854.318-.167 1.646-.8 1.5-1.394-.109-.448-1.719.2-2.118.283-.3.066-.654.371-.972.282-.393-.11-.418-.733-.784-.753-.248-.013-.482.505-.783.54a2.438 2.438 0 0 1-1.128-.6c-.6-.978 1.161-2.611 1.785-3.041 1.392-.961 5.3-3.092 5.693-2.994a3.228 3.228 0 0 0-.653-1.293c-.577-.345-.945.794-1.554.974a6.241 6.241 0 0 1-1.571-.191 2.86 2.86 0 0 1-1.73-.952c-.7-1.094 1.044-1.176 1.774-1.727.829-.626 3.189-2.476 3.494-2.722.246-.2.638-.416.892-.624a4.525 4.525 0 0 0 1.258-2.313c.411-1.245.172-2.864.727-4.037.807-1.708 1.2 1.607 1.392 2.365a14.015 14.015 0 0 0 4.113 6.652c.5.473 3.529 1.986 2.837 2.88-.183.235-1.137-.161-1.4 0s-.266.8-.526.97c-.627.4-1.625-.324-2.293.246a7.386 7.386 0 0 0 1.247 1.463c.362.336.5.6.844.956a5.439 5.439 0 0 0 2.3 1.427 10.17 10.17 0 0 1 2.171 1.811 6.167 6.167 0 0 1 .557 1.519c.167 1.221-.349.725-.814 1.1-.748.338-1.755-.691-2.261-.314a9.2 9.2 0 0 0 2.506 3.279c.534.479 3.025 2.142 2.4 3.055-.346.5-1.657-.279-1.97-.386-.588-.2-.809.065-1.415-.356a1.044 1.044 0 0 0-1.072-.372c-.755.154-1.007-.5-1.894-.07.4.977 1.3.831 1.862 1.475.511.585.088 1.087.8 1.57.464.316 1.066.357 1.569.689.666.438 1.328.928 1.987 1.361.416.272 1.988 1.828 1.416 2.327-.692.6-2.4-1.288-3.064-1.444a2.285 2.285 0 0 0-1.618.279c-.308.249-.756.685-.312 1.145.118.121.709.06.883.1 1.487.34 2.641 1.516 3.735 2.37a6.94 6.94 0 0 1 1.167 1.014c.318.452.182 1.1.424 1.6.65 1.316 2.243 3.122 1.63 3.6-.387.3-1.5-.132-1.729-.125-.988.027-.9-.356-1.647-.89-2.064-1.472.443 2.441-.382 2.877-.594.314-1.537-.043-1.708-.046-.315-.008-.749-.421-1.014-.646-1.016-.867-.513-.31-1.505-.213-1.1.106-.651-.644-1-1.461-.065-.152-.8-.4-.957.113-.354 1.141.375 2.043.713 3.084s1.735 2.952 1.087 3.6c-.4.406-1.54.037-1.817-.133-.122-.075-.693-.946-.9-1.085-1-.671-1.407-2.167-1.86-2.142s-.4 1.132-.737 1.439-.938.465-.9 1.162c.122 2.494.222 5.573.242 7.011a8.6 8.6 0 0 0 .122 1.244c.07.423.979.922 1.772 1.221 1.543.58 1.986.216 3.061.182 1.277-.04 2.292.181 2.955.106.611-.069.813-.541 1.943-.235a31.922 31.922 0 0 1 3.355.706 5.347 5.347 0 0 1 2.213 1.707c-.73.101-1.783-1.068-2.43-1.211zm3.306-38.522h-1.766v4.6h-1.425v-4.6h-1.765v-1.221h4.955zm5.678 4.6h-1.424v-2.278h-2.115v2.278h-1.424v-5.817h1.424v2.327h2.115v-2.327h1.424zm1.366 0v-5.817h3.645v1.221h-2.221v1.057h1.774v1.221h-1.774v1.1h2.336v1.221z" transform="translate(-167.941 -448.567)"/></g></g></svg>
